<svg width="45" height="46" viewBox="0 0 45 46" fill="none" xmlns="http://www.w3.org/2000/svg">
<g clip-path="url(#clip0_2009_492)">
<path d="M22.4452 16.8682C19.1548 16.8682 16.4824 19.5361 16.4824 22.8324C16.4824 26.1272 19.1563 28.7981 22.4452 28.7981C25.7355 28.7981 28.4109 26.1272 28.4109 22.8324C28.4109 19.5361 25.7355 16.8682 22.4452 16.8682ZM22.4452 26.7318C20.2845 26.7318 18.5443 24.9856 18.5443 22.8324C18.5443 20.6792 20.2845 18.9331 22.4452 18.9331C24.5834 18.9331 26.346 20.6792 26.346 22.8324C26.346 24.9856 24.6058 26.7318 22.4452 26.7318Z" fill="black"/>
<path d="M29.0055 14.6865C28.2379 14.6865 27.6289 15.297 27.6289 16.0646C27.6289 16.8307 28.2379 17.4397 29.0055 17.4397C29.7731 17.4397 30.3836 16.8307 30.3836 16.0646C30.3836 15.297 29.7716 14.6865 29.0055 14.6865Z" fill="black"/>
<path d="M22.4471 0.612305C10.1715 0.612305 0.222656 10.5582 0.222656 22.8323C0.222656 35.1034 10.1715 45.0523 22.4471 45.0523C34.7153 45.0523 44.6671 35.1049 44.6671 22.8323C44.6671 10.5582 34.7153 0.612305 22.4471 0.612305ZM33.9148 27.7177C33.9148 31.3432 30.9536 34.3029 27.3071 34.3029H17.5812C13.9332 34.3029 10.972 31.3417 10.972 27.7402V17.9454C10.972 14.3214 13.9317 11.3617 17.5812 11.3617H27.3071C30.9551 11.3617 33.9148 14.3214 33.9148 17.9454V27.7177Z" fill="black"/>
</g>
<defs>
<clipPath id="clip0_2009_492">
<rect width="44.8889" height="44.8889" fill="white" transform="translate(0 0.387695)"/>
</clipPath>
</defs>
</svg>
